<svg width="18" height="18" viewBox="0 0 18 18" fill="none" xmlns="http://www.w3.org/2000/svg">
<path d="M15.6709 8.68359C15.6709 8.73633 15.6709 8.78906 15.6709 8.8418C15.6768 8.89453 15.6797 8.94727 15.6797 9C15.6797 9.05273 15.6768 9.10547 15.6709 9.1582C15.6709 9.21094 15.6709 9.26367 15.6709 9.31641L17.9473 10.7314L16.5498 14.0977L13.9395 13.5C13.7988 13.6523 13.6523 13.7988 13.5 13.9395L14.0977 16.5498L10.7314 17.9473L9.31641 15.6709C9.26367 15.6709 9.21094 15.6738 9.1582 15.6797C9.10547 15.6797 9.05273 15.6797 9 15.6797C8.94727 15.6797 8.89453 15.6797 8.8418 15.6797C8.78906 15.6738 8.73633 15.6709 8.68359 15.6709L7.26855 17.9473L3.90234 16.5498L4.5 13.9395C4.34766 13.7988 4.20117 13.6523 4.06055 13.5L1.4502 14.0977L0.0527344 10.7314L2.3291 9.31641C2.3291 9.26367 2.32617 9.21094 2.32031 9.1582C2.32031 9.10547 2.32031 9.05273 2.32031 9C2.32031 8.94727 2.32031 8.89453 2.32031 8.8418C2.32617 8.78906 2.3291 8.73633 2.3291 8.68359L0.0527344 7.26855L1.4502 3.90234L4.06055 4.5C4.20117 4.34766 4.34766 4.20117 4.5 4.06055L3.90234 1.4502L7.26855 0.0527344L8.68359 2.3291C8.73633 2.3291 8.78906 2.3291 8.8418 2.3291C8.89453 2.32324 8.94727 2.32031 9 2.32031C9.05273 2.32031 9.10547 2.32324 9.1582 2.3291C9.21094 2.3291 9.26367 2.3291 9.31641 2.3291L10.7314 0.0527344L14.0977 1.4502L13.5 4.06055C13.6523 4.20117 13.7988 4.34766 13.9395 4.5L16.5498 3.90234L17.9473 7.26855L15.6709 8.68359ZM14.6426 9.82617C14.6543 9.68555 14.666 9.54785 14.6777 9.41309C14.6895 9.27246 14.6953 9.13184 14.6953 8.99121C14.6953 8.85645 14.6895 8.71875 14.6777 8.57812C14.666 8.4375 14.6543 8.2998 14.6426 8.16504L16.7168 6.87305L15.9609 5.04492L13.5791 5.59863C13.3975 5.37598 13.21 5.1709 13.0166 4.9834C12.8291 4.7959 12.624 4.6084 12.4014 4.4209L12.9551 2.03906L11.127 1.2832L9.82617 3.35742C9.69141 3.3457 9.55371 3.33398 9.41309 3.32227C9.27246 3.31055 9.13477 3.30469 9 3.30469C8.85938 3.30469 8.71875 3.31055 8.57812 3.32227C8.44336 3.33398 8.30566 3.3457 8.16504 3.35742L6.87305 1.2832L5.04492 2.03906L5.59863 4.4209C5.37598 4.60254 5.1709 4.79004 4.9834 4.9834C4.7959 5.1709 4.6084 5.37598 4.4209 5.59863L2.03906 5.04492L1.2832 6.87305L3.35742 8.17383C3.3457 8.31445 3.33398 8.45508 3.32227 8.5957C3.31055 8.73047 3.30469 8.86816 3.30469 9.00879C3.30469 9.14355 3.31055 9.28125 3.32227 9.42188C3.33398 9.5625 3.3457 9.7002 3.35742 9.83496L1.2832 11.127L2.03906 12.9551L4.4209 12.4014C4.60254 12.624 4.78711 12.8291 4.97461 13.0166C5.16797 13.2041 5.37598 13.3916 5.59863 13.5791L5.04492 15.9609L6.87305 16.7168L8.17383 14.6426C8.30859 14.6543 8.44629 14.666 8.58691 14.6777C8.72754 14.6895 8.86523 14.6953 9 14.6953C9.14062 14.6953 9.27832 14.6895 9.41309 14.6777C9.55371 14.666 9.69434 14.6543 9.83496 14.6426L11.127 16.7168L12.9551 15.9609L12.4014 13.5791C12.624 13.3975 12.8291 13.2129 13.0166 13.0254C13.2041 12.832 13.3916 12.624 13.5791 12.4014L15.9609 12.9551L16.7168 11.127L14.6426 9.82617ZM9 5.69531C9.45703 5.69531 9.88477 5.7832 10.2832 5.95898C10.6875 6.12891 11.0391 6.36328 11.3379 6.66211C11.6367 6.96094 11.8711 7.3125 12.041 7.7168C12.2168 8.11523 12.3047 8.54297 12.3047 9C12.3047 9.45703 12.2168 9.8877 12.041 10.292C11.8711 10.6904 11.6367 11.0391 11.3379 11.3379C11.0391 11.6367 10.6875 11.874 10.2832 12.0498C9.88477 12.2197 9.45703 12.3047 9 12.3047C8.54297 12.3047 8.1123 12.2197 7.70801 12.0498C7.30957 11.874 6.96094 11.6367 6.66211 11.3379C6.36328 11.0391 6.12598 10.6904 5.9502 10.292C5.78027 9.8877 5.69531 9.45703 5.69531 9C5.69531 8.54297 5.78027 8.11523 5.9502 7.7168C6.12598 7.3125 6.36328 6.96094 6.66211 6.66211C6.96094 6.36328 7.30957 6.12891 7.70801 5.95898C8.1123 5.7832 8.54297 5.69531 9 5.69531ZM9 11.3203C9.32227 11.3203 9.62402 11.2617 9.90527 11.1445C10.1865 11.0215 10.4326 10.8545 10.6436 10.6436C10.8545 10.4326 11.0186 10.1865 11.1357 9.90527C11.2588 9.62402 11.3203 9.32227 11.3203 9C11.3203 8.67773 11.2588 8.37598 11.1357 8.09473C11.0186 7.81348 10.8545 7.56738 10.6436 7.35645C10.4326 7.14551 10.1865 6.98145 9.90527 6.86426C9.62402 6.74121 9.32227 6.67969 9 6.67969C8.67773 6.67969 8.37598 6.74121 8.09473 6.86426C7.81348 6.98145 7.56738 7.14551 7.35645 7.35645C7.14551 7.56738 6.97852 7.81348 6.85547 8.09473C6.73828 8.37598 6.67969 8.67773 6.67969 9C6.67969 9.32227 6.73828 9.62402 6.85547 9.90527C6.97852 10.1865 7.14551 10.4326 7.35645 10.6436C7.56738 10.8545 7.81348 11.0215 8.09473 11.1445C8.37598 11.2617 8.67773 11.3203 9 11.3203Z" fill="#777777"/>
</svg>
